<?xml version="1.0" encoding="utf-8"?>
<!-- Generator: Adobe Illustrator 23.0.3, SVG Export Plug-In . SVG Version: 6.00 Build 0)  -->
<svg version="1.1" id="Layer_1" xmlns="http://www.w3.org/2000/svg" xmlns:xlink="http://www.w3.org/1999/xlink" x="0px" y="0px"
	 viewBox="0 3.5 193.8 196" style="enable-background:new 0 0 200.2 201.4;" xml:space="preserve">
<style type="text/css">
	.st0{fill:#1877F2;}
	.st1{fill:#FFFFFF;}
</style>
<title>FindUs-FB-RGB-Blk1024</title>
<g>
	<g>
		<path class="st0" d="M193.8,100.8c0-53.6-43.5-97.1-97.1-97.1s-97.1,43.5-97.1,97.1c0,48.5,35.5,88.7,82,95.9v-67.9h-24.8v-28
			h24.8V79.4c0-24.3,14.4-37.8,36.6-37.8c10.6,0,21.6,2,21.6,2v23.7h-12.2c-12.1,0-15.9,7.6-15.9,15.2v18.2h27l-4.3,28h-22.7v67.9
			C158.3,189.5,193.8,149.3,193.8,100.8z"/>
		<path class="st1" d="M134.5,128.9l4.3-28h-27V82.7c0-7.7,3.9-15.2,15.9-15.2h12.2V43.7c0,0-11-2-21.6-2
			c-22.2,0-36.6,13.5-36.6,37.8v21.4h-24.8v28h24.8v67.9c4.9,0.8,10,1.2,15.1,1.2s10.2-0.4,15.1-1.2v-67.9H134.5z"/>
	</g>
</g>
</svg>
